M48
;GenerationSoftware,Autodesk,EAGLE,9.4.2*%
;CreationDate,2019-10-23T11:02:34Z*%
FMAT,2
ICI,OFF
METRIC,TZ,000.000
T9C0.400
T8C0.450
T7C0.813
T6C1.100
T5C2.100
T4C2.184
T3C2.896
T2C3.150
T1C3.200
%
G90
M71
T1
X5080Y80010
X5080Y5080
X94615Y5080
X94615Y80010
T2
X83820Y71830
T3
X83820Y77930
X79020Y74930
T4
X59690Y31369
X59690Y21971
X30480Y21971
X30480Y26670
X30480Y31369
X59690Y26670
T5
X25980Y46990
X51490Y26670
X22280Y63500
X42490Y26670
X22280Y26670
X13280Y26670
X34980Y10160
X25980Y10160
X64190Y46990
X55190Y46990
X51490Y63500
X42490Y63500
X64190Y10160
X55190Y10160
X13280Y63500
X34980Y46990
T6
X30480Y70970
X30480Y73970
X30480Y82470
X17780Y56500
X17780Y82470
X17780Y73970
X17780Y70970
X59690Y82470
X59690Y73970
X59690Y70970
X46990Y82470
X46990Y73970
X46990Y70970
X27980Y39990
X57190Y39990
X59690Y39990
X62190Y39990
X17780Y19670
X27980Y3160
X20280Y56500
X46990Y56500
X49490Y56500
X30480Y3160
X32980Y3160
X44490Y19670
X46990Y19670
X49490Y19670
X30480Y39990
X57190Y3160
X59690Y3160
X62190Y3160
X20280Y19670
X15280Y19670
X15280Y56500
X32980Y39990
X44490Y56500
T7
X80010Y16510
X80010Y19050
X80010Y21590
X30480Y66040
X30480Y63500
X59690Y66040
X59690Y63500
X68580Y73660
X66675Y74930
X68580Y76200
X76200Y40640
X76200Y48260
X15240Y35560
X15240Y43180
X11430Y35560
X11430Y43180
X92710Y67310
X92710Y59690
X92710Y55880
X85090Y55880
X15240Y45720
X15240Y53340
X35560Y55880
X35560Y63500
X74930Y71120
X74930Y81280
X24130Y59690
X24130Y67310
X91440Y12700
X91440Y20320
X87630Y12700
X87630Y20320
X80010Y40640
X80010Y48260
X72390Y27940
X72390Y35560
X50800Y2540
X50800Y10160
X95250Y20320
X95250Y12700
X45720Y35560
X38100Y35560
X95250Y24130
X87630Y24130
X45720Y45720
X80010Y6350
X45720Y39370
X53340Y39370
X45720Y43180
X53340Y43180
X49530Y53340
X49530Y45720
X38100Y53340
X38100Y45720
X19050Y35560
X19050Y43180
X54610Y59690
X54610Y67310
X96520Y67310
X96520Y59690
X92710Y52070
X85090Y52070
X76200Y35560
X76200Y27940
X21590Y2540
X21590Y10160
X72390Y48260
X72390Y40640
X72390Y72390
X72390Y80010
X72390Y52070
X80010Y52070
X21590Y35560
X29210Y35560
X27940Y57150
X33020Y57150
X30480Y57150
X57150Y57150
X62230Y57150
X59690Y57150
X17780Y10160
X38100Y72136
X38100Y70104
X38100Y79756
X38100Y77724
X7620Y70866
X7620Y68834
X7620Y63246
X7620Y61214
X68580Y62230
X71120Y62230
X72390Y55880
X67310Y55880
X82550Y67310
X82550Y64770
X87630Y65024
X87630Y67056
X17780Y2540
X12700Y10160
X12700Y2540
X46990Y2540
X46990Y10160
X41910Y10160
X41910Y2540
X86360Y46990
X86360Y44450
X86360Y31750
X93980Y31750
X86360Y41910
X86360Y39370
X86360Y34290
X86360Y36830
X93980Y34290
X93980Y36830
X93980Y39370
X93980Y41910
X93980Y44450
X93980Y46990
X77470Y67310
X76200Y65405
X74930Y67310
X72390Y21590
X45720Y53340
X72390Y19050
X72390Y6350
X72390Y16510
X72390Y13970
X72390Y8890
X72390Y11430
X21590Y14986
X21590Y12954
X50800Y14986
X50800Y12954
X8890Y53340
X3810Y53340
X8890Y46990
X3810Y46990
X83820Y60960
X76200Y60960
X38100Y26924
X38100Y28956
X80010Y8890
X80010Y11430
X80010Y13970
X7620Y26670
X7620Y31750
X7620Y22860
X7620Y17780
X67310Y26924
X67310Y28956
T8
X97790Y29210
T9
X41402Y19202
X79477Y33071
X68809Y41605
X81813Y29464
X47803Y12395
M30